<?xml version="1.0" encoding="utf-8"?>
<!-- Generator: Adobe Illustrator 16.0.0, SVG Export Plug-In . SVG Version: 6.00 Build 0)  -->
<!DOCTYPE svg PUBLIC "-//W3C//DTD SVG 1.1//EN" "http://www.w3.org/Graphics/SVG/1.1/DTD/svg11.dtd">
<svg version="1.1" id="Layer_1" xmlns="http://www.w3.org/2000/svg" xmlns:xlink="http://www.w3.org/1999/xlink" x="0px" y="0px"
	 width="1784px" height="669.704px" viewBox="0 0 1784 669.704" enable-background="new 0 0 1784 669.704" xml:space="preserve">
<g>
	<g>
		<path d="M23.918,99.855H188.45c88.848,0,150.274,41.132,150.274,136.012c0,97.622-52.652,140.4-146.438,140.4h-60.874v137.111
			H23.918V99.855z M131.413,289.615h18.101c38.937,0,77.326,0,77.326-50.458c0-52.101-35.647-52.648-77.326-52.648h-18.101V289.615z
			"/>
		<path d="M702.361,372.978c0,95.427-78.974,149.722-169.469,149.722c-89.943,0-169.47-53.743-169.47-149.722
			c0-95.979,78.979-150.274,169.47-150.274C623.388,222.704,702.361,276.999,702.361,372.978z M468.724,372.978
			c0,35.648,23.585,63.069,64.169,63.069s64.169-27.421,64.169-63.069c0-34.553-23.585-63.621-64.169-63.621
			S468.724,338.425,468.724,372.978z"/>
		<path d="M843.877,263.841h1.095c18.1-27.974,52.105-41.137,85.011-41.137c83.911,0,142.043,70.201,142.043,150.822
			c0,81.168-57.584,149.174-140.948,149.174c-32.358,0-65.811-11.516-87.2-36.195V653.78h-99.816V232.03h99.816V263.841z
			 M840.587,372.978c0,35.648,23.579,63.069,64.164,63.069c40.589,0,64.169-27.421,64.169-63.069
			c0-34.553-23.58-63.621-64.169-63.621C864.166,309.357,840.587,338.425,840.587,372.978z"/>
		<path d="M1296.356,304.425c-15.357-8.226-36.747-13.71-53.747-13.71c-11.516,0-31.259,4.932-31.259,19.195
			c0,19.195,31.259,21.937,44.97,24.679c46.615,9.321,81.716,31.258,81.716,83.364c0,74.037-67.453,104.748-132.722,104.748
			c-40.037,0-79.521-11.516-113.527-32.358l36.2-69.648c20.29,14.258,54.295,28.516,78.974,28.516
			c12.616,0,31.264-6.032,31.264-21.39c0-21.937-31.264-23.032-62.526-31.258c-31.259-8.227-62.521-23.584-62.521-74.042
			c0-69.101,62.521-99.816,123.948-99.816c31.811,0,63.621,4.937,92.685,18.1L1296.356,304.425z"/>
	</g>
	<g>
		<circle cx="1464.211" cy="78.76" r="62.235"/>
		<path d="M1511.848,165.889h-95.273c-4.677,0-8.502,3.826-8.502,8.502v339.808c0,4.676,3.825,8.501,8.502,8.501h36.402V370.571
			h23.988v33.192V522.7h34.883c4.676,0,8.502-3.826,8.502-8.501V174.391C1520.35,169.715,1516.523,165.889,1511.848,165.889z"/>
		<circle cx="1605.505" cy="219.999" r="42.25"/>
		<path d="M1643.616,288.728c0-5.269-4.312-9.58-9.581-9.58h-57.061c-5.27,0-9.58,4.311-9.58,9.58v106.487l-27.822,33.491h27.822
			v83.091c0,5.27,4.311,9.581,9.58,9.581h20.388v-92.671h16.285v11.928v80.744h20.388c5.27,0,9.581-4.311,9.581-9.581v-83.091
			h27.821l-27.821-34.552V288.728z"/>
		<circle cx="1721.672" cy="219.999" r="42.25"/>
		<path d="M1750.203,279.148h-57.062c-5.27,0-9.581,4.311-9.581,9.58v106.487v33.491v83.091c0,5.27,4.312,9.581,9.581,9.581h20.388
			v-92.671h16.285v11.928v80.744h20.389c5.269,0,9.58-4.311,9.58-9.581v-83.091v-34.552V288.728
			C1759.783,283.459,1755.472,279.148,1750.203,279.148z"/>
	</g>
</g>
</svg>
